<?xml version="1.0" encoding="UTF-8"?>
<svg xmlns="http://www.w3.org/2000/svg" xmlns:xlink="http://www.w3.org/1999/xlink" width="296pt" height="88pt" viewBox="0 0 296 88" version="1.1">
<g id="surface1">
<path style=" stroke:none;fill-rule:nonzero;fill:rgb(33.459473%,36.79657%,43.367004%);fill-opacity:1;" d="M 122.855469 31.386719 L 122.855469 31.332031 C 122.855469 26.011719 126.839844 21.65625 132.507812 21.65625 C 135.957031 21.65625 138.042969 22.859375 139.832031 24.570312 L 137.722656 27.003906 C 136.222656 25.609375 134.621094 24.675781 132.480469 24.675781 C 128.898438 24.675781 126.304688 27.617188 126.304688 31.277344 L 126.304688 31.332031 C 126.304688 34.996094 128.898438 37.988281 132.480469 37.988281 C 134.78125 37.988281 136.25 37.054688 137.855469 35.554688 L 139.96875 37.695312 C 138.015625 39.726562 135.878906 41.011719 132.375 41.011719 C 126.921875 41.011719 122.855469 36.757812 122.855469 31.386719 "/>
<path style=" stroke:none;fill-rule:nonzero;fill:rgb(33.459473%,36.79657%,43.367004%);fill-opacity:1;" d="M 157.464844 31.386719 L 157.464844 31.332031 C 157.464844 27.695312 154.816406 24.675781 151.101562 24.675781 C 147.386719 24.675781 144.789062 27.644531 144.789062 31.277344 L 144.789062 31.332031 C 144.789062 34.96875 147.4375 37.988281 151.152344 37.988281 C 154.871094 37.988281 157.464844 35.019531 157.464844 31.386719 Z M 141.34375 31.386719 L 141.34375 31.332031 C 141.34375 26.066406 145.40625 21.65625 151.152344 21.65625 C 156.902344 21.65625 160.910156 26.011719 160.910156 31.277344 L 160.910156 31.332031 C 160.910156 36.597656 156.847656 41.011719 151.101562 41.011719 C 145.351562 41.011719 141.34375 36.652344 141.34375 31.386719 "/>
<path style=" stroke:none;fill-rule:nonzero;fill:rgb(33.459473%,36.79657%,43.367004%);fill-opacity:1;" d="M 163.320312 21.976562 L 166.820312 21.976562 L 172.515625 30.824219 L 178.210938 21.976562 L 181.710938 21.976562 L 181.710938 40.6875 L 178.425781 40.6875 L 178.425781 27.269531 L 172.515625 36.089844 L 172.410156 36.089844 L 166.554688 27.320312 L 166.554688 40.6875 L 163.320312 40.6875 L 163.320312 21.976562 "/>
<path style=" stroke:none;fill-rule:nonzero;fill:rgb(33.459473%,36.79657%,43.367004%);fill-opacity:1;" d="M 192.195312 31.707031 C 194.679688 31.707031 196.230469 30.316406 196.230469 28.363281 L 196.230469 28.3125 C 196.230469 26.117188 194.652344 24.96875 192.195312 24.96875 L 188.371094 24.96875 L 188.371094 31.707031 Z M 185.082031 21.976562 L 192.460938 21.976562 C 196.820312 21.976562 199.570312 24.460938 199.570312 28.230469 L 199.570312 28.285156 C 199.570312 32.480469 196.203125 34.675781 192.085938 34.675781 L 188.371094 34.675781 L 188.371094 40.6875 L 185.082031 40.6875 L 185.082031 21.976562 "/>
<path style=" stroke:none;fill-rule:nonzero;fill:rgb(33.459473%,36.79657%,43.367004%);fill-opacity:1;" d="M 201.996094 32.75 L 201.996094 21.976562 L 205.285156 21.976562 L 205.285156 32.613281 C 205.285156 36.089844 207.074219 37.960938 210.015625 37.960938 C 212.929688 37.960938 214.722656 36.199219 214.722656 32.75 L 214.722656 21.976562 L 218.011719 21.976562 L 218.011719 32.589844 C 218.011719 38.175781 214.855469 40.984375 209.964844 40.984375 C 205.097656 40.984375 201.996094 38.175781 201.996094 32.75 "/>
<path style=" stroke:none;fill-rule:nonzero;fill:rgb(33.459473%,36.79657%,43.367004%);fill-opacity:1;" d="M 226.421875 25.023438 L 220.488281 25.023438 L 220.488281 21.976562 L 235.671875 21.976562 L 235.671875 25.023438 L 229.738281 25.023438 L 229.738281 40.6875 L 226.421875 40.6875 L 226.421875 25.023438 "/>
<path style=" stroke:none;fill-rule:nonzero;fill:rgb(33.459473%,36.79657%,43.367004%);fill-opacity:1;" d="M 238.289062 21.976562 L 252.164062 21.976562 L 252.164062 24.914062 L 241.578125 24.914062 L 241.578125 29.78125 L 250.960938 29.78125 L 250.960938 32.722656 L 241.578125 32.722656 L 241.578125 37.746094 L 252.300781 37.746094 L 252.300781 40.6875 L 238.289062 40.6875 L 238.289062 21.976562 "/>
<path style=" stroke:none;fill-rule:nonzero;fill:rgb(33.459473%,36.79657%,43.367004%);fill-opacity:1;" d="M 263.34375 31.253906 C 265.695312 31.253906 267.191406 30.023438 267.191406 28.125 L 267.191406 28.070312 C 267.191406 26.066406 265.746094 24.96875 263.3125 24.96875 L 258.527344 24.96875 L 258.527344 31.253906 Z M 255.242188 21.976562 L 263.582031 21.976562 C 265.933594 21.976562 267.777344 22.671875 268.980469 23.847656 C 269.972656 24.863281 270.53125 26.253906 270.53125 27.882812 L 270.53125 27.9375 C 270.53125 31.011719 268.6875 32.855469 266.066406 33.605469 L 271.121094 40.6875 L 267.242188 40.6875 L 262.644531 34.164062 L 258.527344 34.164062 L 258.527344 40.6875 L 255.242188 40.6875 L 255.242188 21.976562 "/>
<path style=" stroke:none;fill-rule:nonzero;fill:rgb(33.459473%,36.79657%,43.367004%);fill-opacity:1;" d="M 122.429688 62.996094 L 124.40625 60.644531 C 126.199219 62.195312 127.988281 63.078125 130.316406 63.078125 C 132.347656 63.078125 133.628906 62.144531 133.628906 60.726562 L 133.628906 60.671875 C 133.628906 59.335938 132.882812 58.613281 129.40625 57.8125 C 125.425781 56.851562 123.179688 55.671875 123.179688 52.226562 L 123.179688 52.171875 C 123.179688 48.964844 125.851562 46.742188 129.566406 46.742188 C 132.292969 46.742188 134.460938 47.574219 136.355469 49.097656 L 134.59375 51.582031 C 132.910156 50.328125 131.226562 49.65625 129.515625 49.65625 C 127.589844 49.65625 126.46875 50.648438 126.46875 51.878906 L 126.46875 51.929688 C 126.46875 53.375 127.320312 54.015625 130.902344 54.871094 C 134.859375 55.835938 136.917969 57.25 136.917969 60.351562 L 136.917969 60.40625 C 136.917969 63.90625 134.164062 65.992188 130.234375 65.992188 C 127.375 65.992188 124.675781 65.003906 122.429688 62.996094 "/>
<path style=" stroke:none;fill-rule:nonzero;fill:rgb(33.459473%,36.79657%,43.367004%);fill-opacity:1;" d="M 138.605469 56.421875 L 138.605469 56.367188 C 138.605469 51.046875 142.589844 46.691406 148.257812 46.691406 C 151.703125 46.691406 153.789062 47.894531 155.582031 49.605469 L 153.46875 52.039062 C 151.972656 50.648438 150.367188 49.710938 148.230469 49.710938 C 144.644531 49.710938 142.054688 52.652344 142.054688 56.316406 L 142.054688 56.367188 C 142.054688 60.03125 144.644531 63.023438 148.230469 63.023438 C 150.527344 63.023438 151.996094 62.089844 153.601562 60.59375 L 155.714844 62.730469 C 153.761719 64.761719 151.625 66.046875 148.121094 66.046875 C 142.667969 66.046875 138.605469 61.796875 138.605469 56.421875 "/>
<path style=" stroke:none;fill-rule:nonzero;fill:rgb(33.459473%,36.79657%,43.367004%);fill-opacity:1;" d="M 158.550781 47.011719 L 161.839844 47.011719 L 161.839844 65.726562 L 158.550781 65.726562 Z M 158.550781 47.011719 "/>
<path style=" stroke:none;fill-rule:nonzero;fill:rgb(33.459473%,36.79657%,43.367004%);fill-opacity:1;" d="M 165.234375 47.011719 L 179.109375 47.011719 L 179.109375 49.953125 L 168.523438 49.953125 L 168.523438 54.816406 L 177.90625 54.816406 L 177.90625 57.757812 L 168.523438 57.757812 L 168.523438 62.785156 L 179.242188 62.785156 L 179.242188 65.726562 L 165.234375 65.726562 L 165.234375 47.011719 "/>
<path style=" stroke:none;fill-rule:nonzero;fill:rgb(33.459473%,36.79657%,43.367004%);fill-opacity:1;" d="M 182.183594 47.011719 L 185.230469 47.011719 L 195.257812 59.949219 L 195.257812 47.011719 L 198.492188 47.011719 L 198.492188 65.726562 L 195.738281 65.726562 L 185.417969 52.410156 L 185.417969 65.726562 L 182.183594 65.726562 L 182.183594 47.011719 "/>
<path style=" stroke:none;fill-rule:nonzero;fill:rgb(33.459473%,36.79657%,43.367004%);fill-opacity:1;" d="M 200.898438 56.421875 L 200.898438 56.367188 C 200.898438 51.046875 204.882812 46.691406 210.550781 46.691406 C 214 46.691406 216.085938 47.894531 217.875 49.605469 L 215.765625 52.039062 C 214.265625 50.648438 212.660156 49.710938 210.523438 49.710938 C 206.941406 49.710938 204.347656 52.652344 204.347656 56.316406 L 204.347656 56.367188 C 204.347656 60.03125 206.941406 63.023438 210.523438 63.023438 C 212.824219 63.023438 214.292969 62.089844 215.898438 60.59375 L 218.007812 62.730469 C 216.058594 64.761719 213.917969 66.046875 210.417969 66.046875 C 204.964844 66.046875 200.898438 61.796875 200.898438 56.421875 "/>
<path style=" stroke:none;fill-rule:nonzero;fill:rgb(33.459473%,36.79657%,43.367004%);fill-opacity:1;" d="M 220.769531 47.011719 L 234.640625 47.011719 L 234.640625 49.953125 L 224.054688 49.953125 L 224.054688 54.816406 L 233.4375 54.816406 L 233.4375 57.757812 L 224.054688 57.757812 L 224.054688 62.785156 L 234.773438 62.785156 L 234.773438 65.726562 L 220.769531 65.726562 L 220.769531 47.011719 "/>
<path style=" stroke:none;fill-rule:nonzero;fill:rgb(78.352356%,10.726929%,25.666809%);fill-opacity:1;" d="M 105.507812 62.121094 L 105.394531 62.121094 L 105.394531 62.640625 L 105.574219 62.640625 C 105.78125 62.640625 105.925781 62.570312 105.925781 62.363281 C 105.925781 62.15625 105.714844 62.121094 105.507812 62.121094 Z M 104.921875 63.597656 L 104.921875 61.804688 C 105.035156 61.804688 105.769531 61.808594 105.792969 61.808594 C 106.140625 61.835938 106.386719 61.984375 106.386719 62.328125 C 106.386719 62.605469 106.230469 62.746094 105.949219 62.777344 C 106.496094 62.890625 106.242188 63.136719 106.394531 63.597656 L 105.945312 63.597656 C 105.921875 63.492188 105.914062 63.199219 105.886719 63.132812 C 105.820312 62.953125 105.589844 62.964844 105.394531 62.964844 L 105.394531 63.597656 Z M 104.296875 62.699219 C 104.296875 63.445312 104.882812 64.046875 105.632812 64.046875 C 106.375 64.046875 106.964844 63.445312 106.964844 62.699219 C 106.964844 61.980469 106.378906 61.355469 105.632812 61.355469 C 104.882812 61.355469 104.296875 61.972656 104.296875 62.699219 Z M 105.632812 64.316406 C 104.71875 64.316406 104.015625 63.613281 104.015625 62.699219 C 104.015625 61.746094 104.773438 61.078125 105.632812 61.078125 C 106.53125 61.078125 107.25 61.800781 107.25 62.699219 C 107.25 63.625 106.523438 64.316406 105.632812 64.316406 Z M 78.972656 51.597656 L 78.972656 60.605469 C 78.972656 60.808594 78.894531 61.003906 78.753906 61.144531 C 77.191406 62.722656 72.523438 65.726562 65.808594 65.726562 C 59.09375 65.726562 54.425781 62.722656 52.863281 61.144531 C 52.722656 61.003906 52.644531 60.808594 52.644531 60.605469 L 52.644531 53.484375 L 45.351562 46.964844 L 45.351562 62.128906 C 45.351562 62.351562 45.425781 62.574219 45.5625 62.75 C 50.261719 68.894531 58.117188 71.441406 65.808594 71.441406 C 73.5 71.441406 81.355469 68.894531 86.054688 62.75 C 86.191406 62.574219 86.265625 62.351562 86.265625 62.128906 L 86.265625 51.601562 L 82.621094 56.414062 Z M 103.492188 31.773438 L 107.25 31.773438 L 107.25 26.4375 L 93.753906 26.4375 L 82.621094 41.140625 L 71.488281 26.4375 L 57.996094 26.4375 L 57.996094 31.773438 L 61.753906 31.773438 C 62.035156 31.773438 62.265625 32 62.265625 32.285156 L 62.265625 49.722656 L 36.21875 26.4375 L 24.355469 26.4375 L 24.355469 31.773438 L 28.109375 31.773438 C 28.390625 31.773438 28.621094 32 28.621094 32.285156 L 28.621094 53.378906 C 28.621094 53.664062 28.390625 53.890625 28.109375 53.890625 L 24.355469 53.890625 L 24.355469 59.226562 L 39.957031 59.226562 L 39.957031 53.890625 L 36.425781 53.890625 C 36.144531 53.890625 35.914062 53.664062 35.914062 53.378906 L 35.914062 35.941406 L 61.960938 59.226562 L 69.558594 59.226562 L 69.558594 35.96875 L 82.621094 53.21875 L 95.6875 35.96875 L 95.6875 53.378906 C 95.683594 53.664062 95.457031 53.890625 95.171875 53.890625 L 91.640625 53.890625 L 91.640625 59.226562 L 107.25 59.226562 L 107.25 53.890625 L 103.492188 53.890625 C 103.207031 53.890625 102.980469 53.664062 102.980469 53.378906 L 102.980469 32.285156 C 102.980469 32 103.207031 31.773438 103.492188 31.773438 Z M 78.984375 22.511719 L 78.984375 33.136719 L 82.621094 37.945312 L 86.277344 33.117188 L 86.277344 22.511719 C 86.277344 22.226562 86.511719 22 86.792969 22 L 90.550781 22 L 90.550781 16.664062 L 74.71875 16.664062 L 74.71875 22 L 78.476562 22 C 78.757812 22 78.984375 22.226562 78.984375 22.511719 Z M 44.824219 22 L 41.066406 22 L 41.066406 16.664062 L 56.898438 16.664062 L 56.898438 22 L 53.140625 22 C 52.859375 22 52.632812 22.226562 52.632812 22.511719 L 52.632812 38.523438 L 45.339844 32.003906 L 45.339844 22.511719 C 45.339844 22.226562 45.109375 22 44.824219 22 "/>
</g>
</svg>
